<svg width="297" height="126" viewBox="0 0 297 126" fill="none" xmlns="http://www.w3.org/2000/svg">
<path d="M10.1504 37.2968C7.07121 35.5675 4.50802 33.0495 2.72413 30.0016C0.940248 26.9537 0 23.4858 0 19.9543C0 16.4227 0.940248 12.9549 2.72413 9.90699C4.50802 6.85911 7.07121 4.3411 10.1504 2.61173C13.2273 0.885889 16.7026 -0.00419327 20.2303 0.0300111C23.0402 -0.00842902 25.8283 0.526246 28.4246 1.60146C30.8418 2.62165 33.0093 4.15345 34.7779 6.09144L29.8389 10.8957C28.6442 9.60881 27.2007 8.57774 25.5959 7.865C23.8811 7.15945 22.0392 6.81557 20.1855 6.8548C17.9347 6.83256 15.716 7.38916 13.7423 8.47119C11.8257 9.58288 10.2497 11.1977 9.18501 13.1407C8.03513 15.1981 7.43946 17.5189 7.45637 19.8757C7.4136 22.2741 8.01854 24.6395 9.20745 26.7229C10.3282 28.6787 11.9675 30.2869 13.9444 31.37C15.9251 32.4548 18.1517 33.0115 20.4099 32.9864C23.6197 33.1191 26.7539 31.9911 29.143 29.8435C29.9029 29.1435 30.5336 28.3152 31.0063 27.3964C31.5513 26.3737 31.9445 25.2771 32.1737 24.1412H20.0732V18.0797H38.774C39.0368 19.1827 39.1649 20.3134 39.1556 21.4472C39.1773 23.8376 38.7901 26.2141 38.0106 28.474C37.2707 30.6063 36.0757 32.5521 34.5085 34.1763C32.7948 36.0357 30.6848 37.4859 28.3348 38.4193C25.7517 39.4205 23.0004 39.9159 20.2303 39.8786C16.7026 39.9128 13.2273 39.0227 10.1504 37.2968V37.2968Z" fill="black"/>
<path d="M43.7803 0.883038H56.6665C60.2792 0.786307 63.8568 1.61305 67.0608 3.28512C69.9182 4.82036 72.2605 7.16268 73.7958 10.0201C75.3739 13.1017 76.1968 16.5144 76.1968 19.9767C76.1968 23.4389 75.3739 26.8515 73.7958 29.9332C72.2541 32.7858 69.9134 35.1265 67.0608 36.6682C63.8531 38.33 60.2781 39.1562 56.6665 39.0702H43.7803V0.883038ZM56.3297 32.2006C58.0417 32.3243 59.7609 32.0975 61.3822 31.534C63.0034 30.9704 64.4926 30.0819 65.7587 28.9229C67.8628 26.4036 69.0155 23.2254 69.0155 19.943C69.0155 16.6605 67.8628 13.4823 65.7587 10.963C64.4897 9.80843 63.0001 8.92282 61.3796 8.3595C59.7591 7.79619 58.0413 7.56685 56.3297 7.68535H50.9867V32.2006H56.3297Z" fill="black"/>
<path d="M85.7618 37.0497C83.1259 35.0644 81.2358 32.2489 80.3962 29.0576L87.1312 26.4085C87.5579 28.2436 88.5004 29.9183 89.8476 31.2352C91.1459 32.4523 92.8731 33.106 94.6519 33.0537C96.1047 33.0934 97.5335 32.6773 98.7378 31.8638C99.2848 31.4991 99.729 30.9999 100.028 30.4142C100.327 29.8285 100.47 29.1758 100.444 28.5188C100.46 27.8536 100.322 27.1937 100.042 26.5903C99.7616 25.9868 99.3461 25.456 98.8276 25.039C97.057 23.7821 95.1034 22.8053 93.0355 22.1431L90.7905 21.29C88.4163 20.491 86.2631 19.1453 84.5046 17.3612C83.6421 16.493 82.9663 15.4577 82.5184 14.3188C82.0706 13.18 81.8603 11.9616 81.9004 10.7385C81.8727 8.81794 82.403 6.93069 83.427 5.30565C84.4865 3.64269 85.9863 2.30605 87.7598 1.44427C89.7521 0.477659 91.9439 -0.00684254 94.158 0.029913C96.8053 -0.156714 99.4403 0.533736 101.656 1.99455C103.871 3.45537 105.544 5.60523 106.416 8.11188L100.04 10.8956C99.6542 9.73384 98.9456 8.70591 97.9969 7.93225C96.9234 7.11214 95.5978 6.69144 94.2478 6.74241C92.869 6.68521 91.508 7.07073 90.364 7.8425C89.8919 8.15102 89.5061 8.57458 89.243 9.07338C88.9798 9.57217 88.848 10.1298 88.8598 10.6936C88.8615 11.2541 88.992 11.8068 89.2411 12.3089C89.4902 12.811 89.8513 13.2492 90.2966 13.5897C91.733 14.6079 93.336 15.3676 95.0336 15.8346L97.4357 16.6428C100.293 17.4994 102.898 19.0407 105.024 21.1328C106.605 23.0234 107.53 25.3763 107.66 27.8377C107.789 30.2992 107.117 32.7362 105.742 34.7824C104.483 36.4909 102.784 37.8255 100.826 38.6437C98.8614 39.4889 96.7454 39.9243 94.607 39.9233C91.4231 39.9625 88.3148 38.9527 85.7618 37.0497V37.0497Z" fill="black"/>
<path d="M122.422 37.2294C119.418 35.5193 116.922 33.0396 115.194 30.0454C113.467 26.9582 112.561 23.4801 112.561 19.943C112.561 16.4059 113.467 12.9277 115.194 9.84053C116.922 6.84008 119.417 4.35303 122.422 2.63413C125.504 0.874013 128.999 -0.0327044 132.547 0.00746715C135.237 -0.0593705 137.908 0.462579 140.375 1.53678C142.841 2.61099 145.043 4.21151 146.825 6.22613L141.774 11.1426C140.674 9.79028 139.283 8.7028 137.705 7.96057C136.128 7.21834 134.403 6.84043 132.66 6.85472C130.394 6.82678 128.159 7.3835 126.172 8.47112C124.179 9.54262 122.535 11.1632 121.435 13.1407C120.343 15.2701 119.774 17.6287 119.774 20.0216C119.774 22.4144 120.343 24.773 121.435 26.9025C122.531 28.7983 124.132 30.3526 126.059 31.3924C128.047 32.48 130.282 33.0368 132.547 33.0088C134.503 33.0255 136.435 32.5809 138.186 31.7111C139.937 30.8412 141.459 29.5706 142.627 28.0025L147.746 32.8517C145.923 35.0686 143.62 36.842 141.011 38.0376C138.325 39.2531 135.406 39.8661 132.458 39.8336C128.94 39.8744 125.476 38.9753 122.422 37.2294V37.2294Z" fill="black"/>
<path d="M166.918 0.883118H191.029V7.61808H174.034V16.4633H189.323V23.1983H174.034V32.0436H191.029V38.7785H166.918V0.883118Z" fill="black"/>
<path d="M193.97 11.861H201.805L206.497 29.4842H206.879L212.312 11.861H219.451L224.884 29.4842H225.243L229.935 11.861H237.658L228.969 39.0254H221.471L215.926 21.4472H215.544L210.067 39.0254H202.613L193.97 11.861Z" fill="black"/>
<path d="M241.384 0.883118H248.366V10.5141L247.94 15.251H248.366C249.21 13.9404 250.388 12.8786 251.778 12.1754C253.275 11.3951 254.94 10.9941 256.628 11.008C258.03 10.9177 259.435 11.134 260.746 11.6419C262.056 12.1498 263.24 12.937 264.216 13.9489C266.097 16.2505 267.042 19.176 266.865 22.1432V39.0254H259.883V22.9963C259.928 22.259 259.827 21.52 259.584 20.8224C259.341 20.1248 258.962 19.4824 258.469 18.9328C257.973 18.4519 257.386 18.0766 256.741 17.8296C256.097 17.5826 255.409 17.4692 254.719 17.496C253.847 17.4889 252.985 17.6886 252.205 18.0788C251.424 18.4691 250.747 19.0387 250.229 19.741C249.012 21.3023 248.376 23.2395 248.433 25.2188V39.0254H241.452L241.384 0.883118Z" fill="black"/>
<path d="M274.431 37.3416C273.514 36.5057 272.79 35.4803 272.31 34.3367C271.829 33.1931 271.603 31.9586 271.647 30.7189C271.62 29.0045 272.13 27.3246 273.106 25.9147C274.083 24.4975 275.447 23.3909 277.035 22.7268C278.784 21.9681 280.673 21.5857 282.58 21.6043C285.03 21.541 287.47 21.9527 289.764 22.8166V21.6492C289.783 20.9596 289.643 20.2748 289.355 19.648C289.067 19.0211 288.638 18.4691 288.103 18.0347C286.815 17.0589 285.226 16.5663 283.613 16.6429C282.327 16.6441 281.059 16.9438 279.908 17.5184C278.771 18.0454 277.76 18.8111 276.945 19.7634L272.455 16.2388C273.771 14.5456 275.472 13.1909 277.416 12.2876C279.452 11.3598 281.667 10.8923 283.904 10.9182C287.316 10.6728 290.698 11.6961 293.401 13.7917C294.526 14.8716 295.401 16.1851 295.963 17.6397C296.525 19.0943 296.762 20.6545 296.656 22.2105V38.9356H289.809V36.264H289.382C288.522 37.3626 287.424 38.2528 286.172 38.8682C284.275 39.7372 282.173 40.0549 280.104 39.7849C278.036 39.5149 276.085 38.6682 274.475 37.3416H274.431ZM287.9 32.4925C289.049 31.2809 289.685 29.672 289.674 28.0025C287.893 27.1538 285.944 26.7165 283.972 26.7228C280.357 26.7228 278.539 28.0923 278.539 30.7863C278.525 31.2954 278.625 31.8013 278.83 32.2673C279.036 32.7332 279.343 33.1475 279.729 33.4803C280.679 34.2233 281.87 34.5908 283.074 34.5129C283.992 34.5604 284.909 34.4039 285.759 34.0545C286.609 33.7052 287.371 33.1717 287.99 32.4925H287.9Z" fill="black"/>
<path d="M20.2528 74.5504H34.1493C36.4886 74.4943 38.8045 75.027 40.8843 76.0995C42.7653 77.0627 44.3254 78.5526 45.3742 80.3874C46.4613 82.2685 47.0125 84.4113 46.9682 86.5835C47.0146 88.9579 46.2194 91.2721 44.7232 93.1164C43.1923 95.0016 41.1733 96.4304 38.8862 97.2472V97.6064L49.1009 112.266V112.693H40.6822L30.8267 98.3697H27.4592V112.693H20.2753L20.2528 74.5504ZM34.1044 91.747C34.8352 91.7746 35.5642 91.6579 36.2498 91.4036C36.9355 91.1494 37.5644 90.7626 38.1005 90.2653C38.6094 89.7763 39.0102 89.1859 39.277 88.5325C39.5438 87.879 39.6707 87.1768 39.6495 86.4713C39.6628 85.7595 39.5294 85.0525 39.2576 84.3945C38.9858 83.7365 38.5814 83.1415 38.0696 82.6466C37.5579 82.1516 36.9497 81.7674 36.2829 81.5178C35.6162 81.2681 34.9052 81.1584 34.1942 81.1955H27.4592V91.747H34.1044Z" fill="black"/>
<path d="M57.9686 111.683C55.8326 110.466 54.0703 108.688 52.8725 106.542C51.6718 104.297 51.0436 101.791 51.0436 99.2454C51.0436 96.6999 51.6718 94.1937 52.8725 91.9492C54.0439 89.7659 55.7709 87.9306 57.8788 86.6286C60.0295 85.3237 62.5025 84.647 65.0179 84.6754C67.5528 84.6089 70.0584 85.2295 72.2692 86.4714C74.2545 87.6408 75.8542 89.3654 76.8714 91.4328C77.9411 93.6027 78.4797 95.9958 78.4429 98.4147C78.4443 99.1659 78.3917 99.9161 78.2858 100.66H57.8788C58.0947 102.57 59.0153 104.331 60.4606 105.599C61.8532 106.731 63.605 107.329 65.3995 107.282C66.8471 107.316 68.2761 106.951 69.5303 106.227C70.6705 105.554 71.6148 104.594 72.2692 103.444L77.9266 106.205C76.72 108.484 74.8924 110.375 72.6555 111.658C70.4186 112.942 67.8639 113.565 65.2873 113.456C62.7339 113.522 60.2087 112.91 57.9686 111.683V111.683ZM71.708 95.8106C71.6185 94.9012 71.302 94.0289 70.7875 93.2737C70.206 92.4175 69.4386 91.7038 68.5425 91.1859C67.4846 90.6296 66.3027 90.3515 65.1077 90.3777C63.5428 90.3338 62.0138 90.8514 60.7973 91.8369C59.5622 92.8765 58.6636 94.2595 58.2156 95.8106H71.708Z" fill="black"/>
<path d="M89.5108 111.705C87.3662 110.5 85.6011 108.719 84.4147 106.564C83.1743 104.278 82.5405 101.712 82.5738 99.1107C82.5352 96.5163 83.1695 93.9562 84.4147 91.6798C85.6011 89.5248 87.3662 87.7441 89.5108 86.5388C91.7455 85.2682 94.2818 84.6243 96.8519 84.6754C99.5754 84.6027 102.268 85.27 104.642 86.6061C106.774 87.8777 108.424 89.8198 109.334 92.1288L102.936 94.8003C102.421 93.6406 101.56 92.6686 100.47 92.0175C99.3812 91.3664 98.1173 91.0681 96.8519 91.1635C95.869 91.1331 94.8913 91.3183 93.9877 91.7061C93.084 92.094 92.2762 92.6751 91.6211 93.4085C90.2654 95.0254 89.5224 97.068 89.5224 99.1781C89.5224 101.288 90.2654 103.331 91.6211 104.948C92.2762 105.681 93.084 106.262 93.9877 106.65C94.8913 107.038 95.869 107.223 96.8519 107.193C98.178 107.255 99.4929 106.923 100.631 106.24C101.77 105.557 102.681 104.553 103.25 103.354L109.603 106.115C108.502 108.413 106.754 110.34 104.575 111.66C102.276 112.942 99.692 113.627 97.0599 113.65C94.4279 113.674 91.8321 113.036 89.5108 111.795V111.705Z" fill="black"/>
<path d="M114.34 85.5285H120.896V89.0531H121.322C122.049 87.7158 123.138 86.6107 124.465 85.8652C125.882 85.0152 127.505 84.5725 129.157 84.5856C130.318 84.5666 131.471 84.7803 132.547 85.2142V92.1512C131.763 91.841 130.961 91.5785 130.145 91.3655C129.453 91.2097 128.744 91.1344 128.035 91.141C127.097 91.1058 126.164 91.2905 125.31 91.6804C124.457 92.0702 123.706 92.6542 123.118 93.386C121.891 95.0197 121.257 97.0233 121.322 99.0658V112.536H114.34V85.5285Z" fill="black"/>
<path d="M139.462 110.515C137.623 108.083 136.716 105.073 136.903 102.029V85.5284H143.952V101.243C143.851 102.808 144.322 104.355 145.276 105.599C145.71 106.106 146.252 106.511 146.861 106.782C147.471 107.054 148.134 107.187 148.801 107.17C149.712 107.197 150.616 107.007 151.439 106.617C152.263 106.226 152.982 105.647 153.538 104.925C154.75 103.346 155.369 101.392 155.289 99.4025V85.5509H162.271V112.715H155.626V109.258H155.177C154.347 110.599 153.157 111.681 151.742 112.379C150.235 113.149 148.563 113.542 146.87 113.523C145.488 113.615 144.104 113.391 142.821 112.87C141.537 112.349 140.389 111.544 139.462 110.515Z" fill="black"/>
<path d="M176.078 105.015C176.511 105.429 176.854 105.927 177.086 106.48C177.318 107.032 177.433 107.626 177.425 108.225C177.432 108.817 177.316 109.405 177.085 109.95C176.853 110.495 176.51 110.986 176.078 111.391C175.663 111.813 175.166 112.146 174.618 112.37C174.07 112.594 173.482 112.704 172.89 112.693C171.699 112.693 170.557 112.22 169.715 111.378C168.873 110.536 168.4 109.394 168.4 108.203C168.394 107.608 168.505 107.018 168.729 106.467C168.952 105.916 169.283 105.415 169.702 104.992C170.112 104.568 170.604 104.231 171.148 104.004C171.692 103.776 172.277 103.662 172.867 103.668C173.465 103.667 174.057 103.786 174.608 104.018C175.16 104.249 175.659 104.588 176.078 105.015V105.015ZM176.414 100.705H169.433V73.5402H176.414V100.705Z" fill="#EA4335"/>
<path d="M191.546 112.917C190.501 112.565 189.549 111.982 188.762 111.211C187.894 110.282 187.225 109.186 186.796 107.989C186.367 106.792 186.188 105.52 186.27 104.252V91.4776H181.51V85.5284H186.27V77.8281H193.342V85.506H200.077V91.4552H193.342V103.017C193.235 104.119 193.556 105.221 194.24 106.093C194.577 106.416 194.98 106.662 195.422 106.813C195.865 106.964 196.334 107.017 196.799 106.968C197.372 106.987 197.944 106.895 198.483 106.699C199.078 106.438 199.656 106.138 200.211 105.801V112.536C198.664 113.131 197.02 113.435 195.362 113.434C194.069 113.499 192.775 113.324 191.546 112.917V112.917Z" fill="black"/>
<path d="M206.812 81.1956C206.382 80.7851 206.042 80.2896 205.814 79.7409C205.586 79.1921 205.475 78.6019 205.487 78.0077C205.475 77.417 205.587 76.8302 205.815 76.2851C206.043 75.74 206.382 75.2487 206.812 74.8423C207.231 74.4262 207.729 74.097 208.276 73.8735C208.823 73.6501 209.409 73.5368 209.999 73.5402C210.592 73.5265 211.181 73.635 211.729 73.8591C212.278 74.0831 212.774 74.4179 213.187 74.8423C214.022 75.6842 214.49 76.822 214.489 78.0077C214.493 78.5986 214.38 79.1844 214.156 79.7315C213.933 80.2785 213.603 80.7761 213.187 81.1956C212.78 81.6304 212.285 81.9749 211.736 82.2069C211.187 82.4389 210.595 82.5533 209.999 82.5426C209.404 82.5479 208.814 82.4311 208.266 82.1994C207.718 81.9677 207.223 81.6261 206.812 81.1956V81.1956ZM206.497 85.5284H213.479V112.693H206.497V85.5284Z" fill="black"/>
<path d="M220.685 85.5284H227.241V88.9184H227.667C228.509 87.5837 229.706 86.5106 231.125 85.8203C232.625 85.0528 234.289 84.66 235.974 84.6753C237.36 84.5826 238.75 84.8028 240.04 85.3196C241.331 85.8364 242.488 86.6367 243.427 87.6612C245.246 89.9743 246.157 92.8728 245.986 95.8105V112.693H239.005V96.6636C239.095 95.1901 238.621 93.7374 237.68 92.6001C237.195 92.1121 236.612 91.7319 235.97 91.4843C235.328 91.2367 234.641 91.1274 233.953 91.1634C233.081 91.1563 232.219 91.356 231.439 91.7462C230.658 92.1364 229.981 92.7061 229.463 93.4084C228.263 94.9752 227.651 96.914 227.735 98.8861V112.738H220.753L220.685 85.5284Z" fill="black"/>
<path d="M256.201 122.728C254.145 121.403 252.571 119.45 251.711 117.16L258.267 114.511C258.765 115.579 259.51 116.514 260.44 117.237C261.371 117.96 262.46 118.452 263.618 118.671C264.776 118.89 265.97 118.831 267.1 118.498C268.231 118.165 269.266 117.568 270.12 116.756C270.807 115.974 271.334 115.063 271.669 114.077C272.004 113.091 272.141 112.048 272.073 111.009V108.876H271.647C270.796 110.086 269.632 111.041 268.279 111.638C266.791 112.306 265.173 112.636 263.542 112.603C261.336 112.61 259.17 112.012 257.279 110.874C255.32 109.681 253.709 107.993 252.609 105.98C251.458 103.688 250.859 101.159 250.859 98.5944C250.859 96.0296 251.458 93.5003 252.609 91.2083C253.703 89.1909 255.315 87.5015 257.279 86.3143C259.165 85.167 261.334 84.5684 263.542 84.5856C265.171 84.5568 266.786 84.8783 268.279 85.5285C269.629 86.1412 270.791 87.102 271.647 88.3123H272.073V85.4388H278.808V110.83C278.868 113.453 278.282 116.051 277.102 118.395C276.007 120.477 274.32 122.188 272.253 123.312C269.745 124.575 266.958 125.184 264.152 125.082C261.346 124.98 258.611 124.17 256.201 122.728V122.728ZM269.896 104.297C271.219 102.726 271.945 100.738 271.945 98.6842C271.945 96.6303 271.219 94.6424 269.896 93.0717C268.536 91.78 266.731 91.0597 264.856 91.0597C262.98 91.0597 261.176 91.78 259.816 93.0717C258.488 94.6405 257.759 96.6291 257.759 98.6842C257.759 100.739 258.488 102.728 259.816 104.297C261.158 105.613 262.964 106.35 264.844 106.35C266.725 106.35 268.53 105.613 269.873 104.297H269.896Z" fill="black"/>
<path d="M176.078 105.015C175.661 104.597 175.166 104.266 174.62 104.04C174.075 103.814 173.491 103.698 172.901 103.698C172.311 103.698 171.727 103.814 171.182 104.04C170.637 104.266 170.141 104.597 169.724 105.015C169.302 105.43 168.969 105.927 168.745 106.475C168.521 107.023 168.411 107.611 168.422 108.203C168.412 108.791 168.522 109.376 168.746 109.92C168.97 110.465 169.303 110.958 169.724 111.368C170.35 112.008 171.152 112.446 172.028 112.627C172.904 112.807 173.814 112.722 174.642 112.382C175.469 112.042 176.176 111.462 176.672 110.718C177.168 109.973 177.43 109.097 177.425 108.203C177.433 107.607 177.317 107.016 177.085 106.468C176.853 105.919 176.51 105.424 176.078 105.015Z" fill="#EA4335"/>
<path d="M176.414 95.788V100.66H169.432V89.8837C169.835 91.4733 170.724 92.8972 171.976 93.956C173.228 95.0148 174.78 95.6554 176.414 95.788V95.788Z" fill="#4285F4"/>
<path d="M176.414 73.5402V80.0731C174.778 80.2104 173.226 80.8554 171.974 81.918C170.722 82.9806 169.834 84.4077 169.432 85.9999V73.5402H176.414Z" fill="#FBBC04"/>
<path d="M176.414 80.0731V95.788C174.78 95.6554 173.228 95.0148 171.976 93.956C170.724 92.8972 169.835 91.4733 169.432 89.8837V85.955C169.842 84.3711 170.734 82.954 171.985 81.9C173.236 80.846 174.784 80.2075 176.414 80.0731V80.0731Z" fill="#0F9D58"/>
</svg>
