<svg width="258" height="24" viewBox="0 0 258 24" fill="none" xmlns="http://www.w3.org/2000/svg">
<path d="M5.49998 17.5201C4.12841 16.7497 2.98667 15.6281 2.19207 14.2705C1.39746 12.9128 0.978638 11.3681 0.978638 9.79505C0.978638 8.22197 1.39746 6.67726 2.19207 5.31962C2.98667 3.96198 4.12841 2.84037 5.49998 2.07005C6.87058 1.30129 8.41858 0.904815 9.98997 0.920051C11.2416 0.902929 12.4835 1.14109 13.64 1.62003C14.7167 2.07446 15.6822 2.75678 16.47 3.62003L14.27 5.76005C13.7378 5.1868 13.0948 4.72752 12.38 4.41004C11.6162 4.09577 10.7957 3.94259 9.96998 3.96006C8.96742 3.95016 7.97914 4.19809 7.09998 4.68006C6.24625 5.17525 5.54425 5.89453 5.06998 6.76005C4.55778 7.67647 4.29245 8.71023 4.29998 9.76005C4.28093 10.8284 4.55039 11.882 5.07998 12.81C5.57919 13.6812 6.30939 14.3976 7.18998 14.88C8.07227 15.3633 9.06409 15.6112 10.07 15.6C11.4997 15.6592 12.8958 15.1567 13.96 14.2001C14.2985 13.8883 14.5794 13.5193 14.79 13.1101C15.0327 12.6545 15.2079 12.166 15.31 11.66H9.91998V8.96006H18.25C18.367 9.45135 18.4241 9.95503 18.42 10.4601C18.4296 11.5248 18.2572 12.5834 17.91 13.59C17.5804 14.5398 17.0481 15.4066 16.35 16.13C15.5866 16.9583 14.6468 17.6043 13.6 18.0201C12.4494 18.466 11.2238 18.6867 9.98997 18.6701C8.41858 18.6853 6.87058 18.2888 5.49998 17.5201V17.5201Z" fill="black"/>
<path d="M20.48 1.30002H26.22C27.8292 1.25693 29.4228 1.6252 30.85 2.37C32.1228 3.05385 33.1661 4.0972 33.85 5.37C34.5529 6.74268 34.9195 8.26282 34.9195 9.80503C34.9195 11.3472 34.5529 12.8673 33.85 14.24C33.1633 15.5107 32.1206 16.5533 30.85 17.24C29.4211 17.9803 27.8287 18.3483 26.22 18.31H20.48V1.30002ZM26.07 15.25C26.8325 15.3051 27.5983 15.2041 28.3205 14.9531C29.0427 14.702 29.706 14.3063 30.27 13.79C31.2072 12.6678 31.7207 11.2521 31.7207 9.79001C31.7207 8.3279 31.2072 6.91221 30.27 5.79001C29.7047 5.27572 29.0412 4.88124 28.3194 4.63031C27.5975 4.37939 26.8324 4.27724 26.07 4.33002H23.69V15.25H26.07Z" fill="black"/>
<path d="M39.18 17.41C38.0059 16.5256 37.164 15.2715 36.79 13.85L39.79 12.67C39.9801 13.4874 40.3999 14.2334 41 14.82C41.5783 15.3621 42.3477 15.6533 43.14 15.63C43.7872 15.6477 44.4236 15.4624 44.96 15.1C45.2037 14.9375 45.4016 14.7152 45.5347 14.4543C45.6677 14.1934 45.7316 13.9027 45.72 13.61C45.7271 13.3137 45.6658 13.0198 45.541 12.751C45.4161 12.4822 45.231 12.2457 45 12.06C44.2114 11.5001 43.3412 11.065 42.42 10.77L41.42 10.39C40.3625 10.0341 39.4034 9.43468 38.62 8.64C38.2359 8.25327 37.9348 7.7921 37.7353 7.28481C37.5359 6.77752 37.4422 6.2348 37.46 5.68999C37.4477 4.83451 37.6839 3.99386 38.14 3.27001C38.612 2.52927 39.2801 1.93388 40.07 1.55001C40.9575 1.11944 41.9338 0.903629 42.92 0.920002C44.0992 0.836871 45.273 1.14442 46.2598 1.79512C47.2467 2.44582 47.9919 3.40345 48.38 4.52001L45.54 5.76C45.3683 5.24249 45.0526 4.78461 44.63 4.43999C44.1518 4.07468 43.5614 3.88729 42.96 3.90999C42.3459 3.88451 41.7396 4.05624 41.23 4.40001C41.0198 4.53744 40.8479 4.72611 40.7307 4.94829C40.6135 5.17047 40.5548 5.41885 40.56 5.67C40.5608 5.91968 40.6189 6.16585 40.7299 6.38951C40.8408 6.61318 41.0017 6.80837 41.2 6.96001C41.8398 7.41356 42.5539 7.75197 43.31 7.96001L44.38 8.32C45.6527 8.70155 46.813 9.3881 47.76 10.32C48.4645 11.1621 48.8766 12.2102 48.9343 13.3066C48.992 14.4031 48.6922 15.4886 48.08 16.4C47.5193 17.1611 46.7623 17.7555 45.89 18.12C45.0151 18.4965 44.0725 18.6904 43.12 18.69C41.7018 18.7074 40.3172 18.2576 39.18 17.41V17.41Z" fill="black"/>
<path d="M55.51 17.49C54.1716 16.7283 53.0601 15.6237 52.29 14.29C51.5211 12.9149 51.1173 11.3656 51.1173 9.79001C51.1173 8.21445 51.5211 6.66517 52.29 5.29001C53.0599 3.9535 54.1712 2.84568 55.51 2.08002C56.8826 1.296 58.4394 0.892115 60.02 0.910008C61.218 0.880236 62.4079 1.11273 63.5066 1.59122C64.6052 2.06971 65.5859 2.78264 66.38 3.68003L64.13 5.87C63.6398 5.26763 63.0203 4.78323 62.3176 4.45261C61.6148 4.122 60.8467 3.95366 60.07 3.96003C59.0608 3.94758 58.0655 4.19557 57.18 4.68003C56.2923 5.15732 55.56 5.87917 55.07 6.76001C54.5839 7.70856 54.3304 8.75915 54.3304 9.82502C54.3304 10.8909 54.5839 11.9415 55.07 12.89C55.5584 13.7345 56.2715 14.4269 57.13 14.89C58.0155 15.3745 59.0108 15.6225 60.02 15.61C60.8911 15.6175 61.7516 15.4194 62.5317 15.032C63.3119 14.6445 63.9896 14.0785 64.51 13.38L66.79 15.54C65.9781 16.5275 64.9523 17.3174 63.79 17.85C62.5936 18.3915 61.2932 18.6645 59.98 18.65C58.4134 18.6682 56.8702 18.2677 55.51 17.49V17.49Z" fill="black"/>
<path d="M75.33 1.30005H86.07V4.30005H78.5V8.24005H85.31V11.2401H78.5V15.1801H86.07V18.1801H75.33V1.30005Z" fill="black"/>
<path d="M87.38 6.19H90.87L92.96 14.04H93.13L95.55 6.19H98.73L101.15 14.04H101.31L103.4 6.19H106.84L102.97 18.29H99.63L97.16 10.46H96.99L94.55 18.29H91.23L87.38 6.19Z" fill="black"/>
<path d="M108.5 1.30005H111.61V5.59003L111.42 7.70004H111.61C111.986 7.11623 112.51 6.64328 113.13 6.33005C113.797 5.98245 114.538 5.80387 115.29 5.81003C115.915 5.76981 116.541 5.86618 117.124 6.09241C117.708 6.31864 118.236 6.6693 118.67 7.12003C119.508 8.14526 119.929 9.44835 119.85 10.7701V18.29H116.74V11.1501C116.76 10.8216 116.715 10.4925 116.607 10.1817C116.499 9.87099 116.33 9.58485 116.11 9.34003C115.889 9.12582 115.628 8.95865 115.341 8.84863C115.054 8.73862 114.747 8.68808 114.44 8.70004C114.051 8.69688 113.667 8.78583 113.32 8.95966C112.972 9.13348 112.671 9.38721 112.44 9.70004C111.898 10.3955 111.615 11.2584 111.64 12.14V18.29H108.53L108.5 1.30005Z" fill="black"/>
<path d="M123.22 17.54C122.812 17.1676 122.489 16.7109 122.275 16.2015C122.061 15.6921 121.96 15.1422 121.98 14.59C121.968 13.8263 122.195 13.0781 122.63 12.45C123.065 11.8187 123.673 11.3258 124.38 11.03C125.159 10.6921 126.001 10.5217 126.85 10.53C127.942 10.5018 129.028 10.6852 130.05 11.07V10.55C130.059 10.2429 129.996 9.93782 129.868 9.65861C129.74 9.37939 129.549 9.13348 129.31 8.94001C128.737 8.50535 128.029 8.28592 127.31 8.32001C126.737 8.32055 126.172 8.45407 125.66 8.71003C125.153 8.94476 124.703 9.28582 124.34 9.71003L122.34 8.14002C122.926 7.38581 123.684 6.78241 124.55 6.38001C125.457 5.96676 126.444 5.7585 127.44 5.77003C128.96 5.66072 130.466 6.11655 131.67 7.05003C132.171 7.53103 132.561 8.11612 132.811 8.76405C133.062 9.41197 133.167 10.107 133.12 10.8V18.25H130.07V17.06H129.88C129.497 17.5494 129.008 17.9459 128.45 18.22C127.605 18.6071 126.669 18.7486 125.747 18.6283C124.826 18.5081 123.957 18.1309 123.24 17.54H123.22ZM129.22 15.38C129.732 14.8403 130.015 14.1237 130.01 13.38C129.217 13.002 128.349 12.8072 127.47 12.81C125.86 12.81 125.05 13.42 125.05 14.62C125.044 14.8468 125.088 15.0722 125.18 15.2797C125.272 15.4872 125.408 15.6718 125.58 15.82C126.003 16.151 126.534 16.3147 127.07 16.28C127.479 16.3012 127.887 16.2314 128.266 16.0758C128.645 15.9202 128.984 15.6825 129.26 15.38H129.22Z" fill="black"/>
<path d="M141.97 1.30001H148.16C149.202 1.27501 150.234 1.51228 151.16 1.99001C151.998 2.41909 152.693 3.08274 153.16 3.90001C153.644 4.73794 153.89 5.69242 153.87 6.65999C153.891 7.71763 153.536 8.74848 152.87 9.57C152.188 10.4097 151.289 11.0462 150.27 11.41V11.57L154.82 18.1V18.29H151.07L146.68 11.91H145.18V18.29H141.98L141.97 1.30001ZM148.14 8.96001C148.465 8.97229 148.79 8.9203 149.096 8.80706C149.401 8.69381 149.681 8.52152 149.92 8.30001C150.147 8.08216 150.325 7.81921 150.444 7.52813C150.563 7.23704 150.619 6.92427 150.61 6.61C150.616 6.29293 150.556 5.97803 150.435 5.68493C150.314 5.39182 150.134 5.12679 149.906 4.90633C149.678 4.68587 149.407 4.51472 149.11 4.40352C148.813 4.29232 148.497 4.24347 148.18 4.26H145.18V8.96001H148.14Z" fill="black"/>
<path d="M158.77 17.84C157.819 17.2981 157.034 16.5062 156.5 15.55C155.965 14.5502 155.685 13.4339 155.685 12.3C155.685 11.1662 155.965 10.0498 156.5 9.05003C157.022 8.07754 157.791 7.26001 158.73 6.68004C159.688 6.09879 160.79 5.79739 161.91 5.81001C163.039 5.7804 164.155 6.05685 165.14 6.61003C166.024 7.13093 166.737 7.89914 167.19 8.82002C167.666 9.78658 167.906 10.8526 167.89 11.93C167.891 12.2646 167.867 12.5988 167.82 12.93H158.73C158.826 13.7809 159.236 14.5654 159.88 15.13C160.5 15.6346 161.281 15.9006 162.08 15.88C162.725 15.8949 163.361 15.7323 163.92 15.41C164.428 15.1102 164.848 14.6827 165.14 14.17L167.66 15.4C167.123 16.4153 166.308 17.2575 165.312 17.8291C164.316 18.4008 163.178 18.6785 162.03 18.63C160.893 18.6593 159.768 18.3867 158.77 17.84V17.84ZM164.89 10.77C164.85 10.365 164.709 9.97642 164.48 9.64003C164.221 9.25866 163.879 8.94075 163.48 8.71004C163.009 8.46227 162.482 8.33837 161.95 8.35002C161.253 8.33047 160.572 8.56103 160.03 9.00002C159.48 9.46308 159.08 10.0791 158.88 10.77H164.89Z" fill="black"/>
<path d="M172.82 17.85C171.865 17.3131 171.078 16.52 170.55 15.56C169.997 14.5416 169.715 13.3986 169.73 12.24C169.713 11.0844 169.995 9.94401 170.55 8.93004C171.078 7.97009 171.865 7.17693 172.82 6.64003C173.815 6.07404 174.945 5.78726 176.09 5.81001C177.303 5.77761 178.502 6.07484 179.56 6.67003C180.509 7.23641 181.244 8.1015 181.65 9.13002L178.8 10.32C178.571 9.80344 178.187 9.37048 177.702 9.08046C177.217 8.79043 176.654 8.65755 176.09 8.70002C175.652 8.6865 175.217 8.76899 174.814 8.94175C174.412 9.11451 174.052 9.37334 173.76 9.70002C173.156 10.4203 172.825 11.3301 172.825 12.27C172.825 13.2099 173.156 14.1198 173.76 14.84C174.052 15.1667 174.412 15.4255 174.814 15.5983C175.217 15.771 175.652 15.8535 176.09 15.84C176.681 15.8676 177.266 15.72 177.773 15.4158C178.281 15.1115 178.686 14.6642 178.94 14.13L181.77 15.36C181.279 16.3836 180.501 17.2419 179.53 17.83C178.506 18.4012 177.355 18.706 176.183 18.7164C175.01 18.7269 173.854 18.4428 172.82 17.89V17.85Z" fill="black"/>
<path d="M183.88 6.19003H186.8V7.76004H186.99C187.314 7.16433 187.799 6.67209 188.39 6.34003C189.021 5.9614 189.744 5.76419 190.48 5.77005C190.997 5.76158 191.51 5.85678 191.99 6.05005V9.14005C191.641 9.00183 191.283 8.88495 190.92 8.79004C190.612 8.72066 190.296 8.6871 189.98 8.69003C189.562 8.67437 189.147 8.75666 188.766 8.9303C188.386 9.10394 188.052 9.3641 187.79 9.69003C187.243 10.4178 186.961 11.3102 186.99 12.22V18.22H183.88V6.19003Z" fill="black"/>
<path d="M195.07 17.32C194.251 16.2365 193.847 14.8957 193.93 13.54V6.19H197.07V13.19C197.025 13.8868 197.235 14.5762 197.66 15.13C197.853 15.3561 198.094 15.5362 198.366 15.6573C198.638 15.7784 198.933 15.8374 199.23 15.83C199.636 15.8418 200.038 15.7573 200.405 15.5835C200.772 15.4097 201.092 15.1515 201.34 14.83C201.88 14.1265 202.156 13.256 202.12 12.37V6.20001H205.23V18.3H202.27V16.76H202.07C201.7 17.3575 201.17 17.8392 200.54 18.15C199.869 18.4931 199.124 18.6681 198.37 18.66C197.754 18.7007 197.138 18.6012 196.566 18.3691C195.995 18.137 195.483 17.7783 195.07 17.32Z" fill="black"/>
<path d="M211.38 14.87C211.573 15.0542 211.726 15.2764 211.829 15.5224C211.932 15.7685 211.984 16.0332 211.98 16.3C211.983 16.5638 211.932 16.8254 211.829 17.0681C211.725 17.3109 211.572 17.5295 211.38 17.71C211.195 17.8981 210.974 18.0465 210.73 18.1463C210.486 18.246 210.224 18.2949 209.96 18.29C209.43 18.29 208.921 18.0793 208.546 17.7042C208.171 17.3291 207.96 16.8204 207.96 16.29C207.957 16.0251 208.007 15.7623 208.107 15.5168C208.206 15.2713 208.353 15.0481 208.54 14.86C208.723 14.6708 208.942 14.5209 209.184 14.4195C209.427 14.318 209.687 14.2671 209.95 14.27C210.216 14.2698 210.48 14.3227 210.726 14.4258C210.971 14.5288 211.194 14.6798 211.38 14.87V14.87ZM211.53 12.95H208.42V0.849976H211.53V12.95Z" fill="#EA4335"/>
<path d="M218.27 18.39C217.805 18.2333 217.381 17.9735 217.03 17.63C216.643 17.2164 216.345 16.7279 216.154 16.1948C215.964 15.6617 215.884 15.0951 215.92 14.53V8.84H213.8V6.19H215.92V2.76001H219.07V6.18002H222.07V8.83002H219.07V13.98C219.022 14.4711 219.166 14.9617 219.47 15.35C219.62 15.494 219.8 15.6036 219.997 15.6709C220.194 15.7383 220.403 15.7619 220.61 15.74C220.865 15.7483 221.12 15.7075 221.36 15.62C221.625 15.5039 221.883 15.3703 222.13 15.22V18.22C221.441 18.4851 220.709 18.6207 219.97 18.62C219.394 18.649 218.818 18.571 218.27 18.39V18.39Z" fill="black"/>
<path d="M225.07 4.26001C224.879 4.07712 224.727 3.85644 224.626 3.61199C224.524 3.36755 224.475 3.10465 224.48 2.83999C224.475 2.57684 224.525 2.31549 224.626 2.07269C224.728 1.82988 224.879 1.61101 225.07 1.43002C225.257 1.24466 225.479 1.098 225.722 0.99847C225.966 0.89894 226.227 0.84848 226.49 0.850002C226.754 0.843894 227.016 0.892238 227.26 0.99203C227.505 1.09182 227.726 1.24094 227.91 1.43002C228.282 1.805 228.49 2.31185 228.49 2.83999C228.492 3.10321 228.441 3.36414 228.342 3.60781C228.242 3.85149 228.095 4.07313 227.91 4.26001C227.728 4.45368 227.508 4.60713 227.264 4.71048C227.019 4.81382 226.756 4.86477 226.49 4.86001C226.225 4.86235 225.962 4.81031 225.718 4.70712C225.474 4.60392 225.253 4.45174 225.07 4.26001V4.26001ZM224.93 6.19H228.04V18.29H224.93V6.19Z" fill="black"/>
<path d="M231.25 6.18999H234.17V7.7H234.36C234.735 7.10546 235.268 6.62747 235.9 6.32C236.568 5.97815 237.309 5.80315 238.06 5.80999C238.678 5.76868 239.297 5.86676 239.871 6.09697C240.446 6.32719 240.962 6.68366 241.38 7.14C242.19 8.17032 242.596 9.46143 242.52 10.77V18.29H239.41V11.15C239.45 10.4937 239.239 9.84654 238.82 9.33999C238.604 9.12259 238.344 8.95323 238.058 8.84295C237.772 8.73267 237.466 8.68396 237.16 8.7C236.771 8.69684 236.387 8.78579 236.04 8.95961C235.692 9.13344 235.391 9.38717 235.16 9.7C234.625 10.3979 234.353 11.2616 234.39 12.14V18.31H231.28L231.25 6.18999Z" fill="black"/>
<path d="M247.07 22.76C246.154 22.1697 245.453 21.3001 245.07 20.28L247.99 19.1C248.212 19.5758 248.544 19.9919 248.958 20.3141C249.373 20.6363 249.858 20.8553 250.374 20.9529C250.89 21.0506 251.421 21.0243 251.925 20.8759C252.428 20.7276 252.889 20.4617 253.27 20.1C253.576 19.7514 253.811 19.3459 253.96 18.9066C254.109 18.4674 254.17 18.003 254.14 17.54V16.59H253.95C253.571 17.1288 253.053 17.5541 252.45 17.82C251.787 18.1177 251.066 18.2646 250.34 18.25C249.357 18.253 248.392 17.9867 247.55 17.48C246.677 16.9485 245.96 16.1967 245.47 15.3C244.957 14.2791 244.69 13.1525 244.69 12.01C244.69 10.8676 244.957 9.74091 245.47 8.72C245.957 7.82137 246.675 7.06887 247.55 6.54001C248.39 6.02897 249.356 5.76234 250.34 5.77002C251.065 5.75715 251.785 5.90037 252.45 6.19001C253.051 6.46291 253.569 6.89091 253.95 7.43003H254.14V6.15003H257.14V17.46C257.167 18.6287 256.906 19.786 256.38 20.83C255.892 21.7575 255.141 22.5196 254.22 23.02C253.103 23.5829 251.862 23.8542 250.612 23.8087C249.362 23.7633 248.143 23.4025 247.07 22.76V22.76ZM253.17 14.55C253.76 13.8504 254.083 12.9649 254.083 12.05C254.083 11.1351 253.76 10.2497 253.17 9.55002C252.564 8.97463 251.761 8.65381 250.925 8.65381C250.089 8.65381 249.286 8.97463 248.68 9.55002C248.089 10.2488 247.764 11.1346 247.764 12.05C247.764 12.9654 248.089 13.8512 248.68 14.55C249.278 15.1363 250.082 15.4648 250.92 15.4648C251.758 15.4648 252.562 15.1363 253.16 14.55H253.17Z" fill="black"/>
<path d="M211.38 14.87C211.194 14.684 210.974 14.5365 210.731 14.4359C210.488 14.3352 210.228 14.2834 209.965 14.2834C209.702 14.2834 209.442 14.3352 209.199 14.4359C208.956 14.5365 208.736 14.684 208.55 14.87C208.362 15.0548 208.213 15.2761 208.114 15.5203C208.014 15.7644 207.965 16.0263 207.97 16.29C207.965 16.5522 208.014 16.8126 208.114 17.0551C208.214 17.2976 208.362 17.517 208.55 17.7C208.829 17.9849 209.186 18.1801 209.576 18.2606C209.967 18.341 210.372 18.3031 210.741 18.1516C211.109 18.0001 211.424 17.7419 211.645 17.4102C211.866 17.0786 211.982 16.6885 211.98 16.29C211.984 16.0247 211.932 15.7616 211.829 15.5172C211.726 15.2727 211.573 15.0524 211.38 14.87Z" fill="#EA4335"/>
<path d="M211.53 10.76V12.93H208.42V8.13C208.599 8.83807 208.995 9.47235 209.553 9.94397C210.111 10.4156 210.802 10.7009 211.53 10.76V10.76Z" fill="#4285F4"/>
<path d="M211.53 0.849976V3.75998C210.801 3.82116 210.11 4.10847 209.552 4.58179C208.995 5.0551 208.599 5.69078 208.42 6.39999V0.849976H211.53Z" fill="#FBBC04"/>
<path d="M211.53 3.76001V10.76C210.802 10.7009 210.111 10.4156 209.553 9.94397C208.995 9.47235 208.599 8.83807 208.42 8.13V6.38C208.602 5.6745 209 5.04324 209.557 4.57376C210.114 4.10428 210.804 3.81988 211.53 3.76001V3.76001Z" fill="#0F9D58"/>
</svg>
