<svg width="259" height="95" viewBox="0 0 259 95" fill="none" xmlns="http://www.w3.org/2000/svg">
<path d="M39.7742 24.8913C37.7192 23.7372 36.0086 22.0567 34.818 20.0226C33.6275 17.9885 33 15.6741 33 13.3172C33 10.9603 33.6275 8.64588 34.818 6.61177C36.0086 4.57766 37.7192 2.89718 39.7742 1.74303C41.8277 0.591229 44.147 -0.00279833 46.5014 0.0200291C48.3766 -0.0056252 50.2374 0.351208 51.9701 1.06879C53.5833 1.74965 55.0299 2.77195 56.2102 4.06533L52.914 7.27165C52.1167 6.41277 51.1533 5.72465 50.0823 5.24898C48.9379 4.77811 47.7086 4.5486 46.4715 4.57478C44.9694 4.55994 43.4886 4.93141 42.1714 5.65354C40.8923 6.39547 39.8405 7.47314 39.1299 8.76992C38.3625 10.143 37.965 11.6918 37.9763 13.2647C37.9477 14.8654 38.3515 16.444 39.1449 17.8344C39.8929 19.1397 40.9869 20.213 42.3063 20.9359C43.6282 21.6599 45.1142 22.0314 46.6213 22.0146C48.7634 22.1032 50.8552 21.3504 52.4496 19.9171C52.9567 19.4499 53.3777 18.8971 53.6931 18.2839C54.0568 17.6014 54.3193 16.8696 54.4722 16.1114H46.3965V12.0661H58.8771C59.0525 12.8022 59.1381 13.5569 59.1318 14.3135C59.1463 15.9089 58.8879 17.4949 58.3677 19.0031C57.8739 20.4261 57.0763 21.7247 56.0304 22.8087C54.8867 24.0497 53.4786 25.0175 51.9102 25.6405C50.1863 26.3086 48.3501 26.6392 46.5014 26.6143C44.147 26.6372 41.8277 26.0431 39.7742 24.8913Z" fill="black"/>
<path d="M62.2183 0.589308H70.8183C73.2294 0.524751 75.6171 1.07651 77.7553 2.19242C79.6623 3.21702 81.2255 4.78025 82.2501 6.68723C83.3033 8.74388 83.8526 11.0215 83.8526 13.3321C83.8526 15.6427 83.3033 17.9203 82.2501 19.9769C81.2213 21.8807 79.6591 23.4429 77.7553 24.4717C75.6145 25.5809 73.2287 26.1322 70.8183 26.0749H62.2183V0.589308ZM70.5936 21.4902C71.7361 21.5727 72.8835 21.4214 73.9655 21.0453C75.0475 20.6691 76.0414 20.0762 76.8863 19.3027C78.2906 17.6213 79.0598 15.5002 79.0598 13.3096C79.0598 11.119 78.2906 8.99788 76.8863 7.31653C76.0394 6.54598 75.0453 5.95493 73.9638 5.57898C72.8823 5.20304 71.7358 5.04998 70.5936 5.12907H67.0277V21.4902H70.5936Z" fill="black"/>
<path d="M90.236 24.7264C88.4769 23.4014 87.2155 21.5224 86.6552 19.3926L91.15 17.6246C91.4347 18.8493 92.0637 19.967 92.9629 20.8459C93.8293 21.6581 94.982 22.0945 96.1692 22.0595C97.1387 22.086 98.0923 21.8083 98.896 21.2654C99.2611 21.022 99.5576 20.6889 99.7569 20.298C99.9563 19.9071 100.052 19.4715 100.035 19.033C100.045 18.5891 99.9535 18.1487 99.7664 17.7459C99.5793 17.3432 99.302 16.9889 98.9559 16.7107C97.7743 15.8718 96.4705 15.2199 95.0904 14.7779L93.5921 14.2086C92.0076 13.6754 90.5706 12.7773 89.397 11.5866C88.8214 11.0072 88.3703 10.3162 88.0715 9.55616C87.7726 8.7961 87.6322 7.98297 87.659 7.1667C87.6405 5.88496 87.9944 4.62543 88.6778 3.54091C89.3849 2.43108 90.3859 1.53902 91.5695 0.963881C92.8991 0.318782 94.3619 -0.0045666 95.8395 0.0199634C97.6063 -0.104588 99.3649 0.356207 100.843 1.33113C102.322 2.30606 103.439 3.74085 104.02 5.41375L99.765 7.27159C99.5076 6.49621 99.0347 5.81019 98.4016 5.29386C97.6851 4.74653 96.8004 4.46576 95.8995 4.49978C94.9793 4.4616 94.071 4.71889 93.3075 5.23396C92.9924 5.43987 92.735 5.72254 92.5593 6.05543C92.3837 6.38832 92.2957 6.76046 92.3036 7.13675C92.3048 7.51083 92.3918 7.87966 92.5581 8.21477C92.7243 8.54988 92.9653 8.84233 93.2625 9.06953C94.2211 9.74907 95.2909 10.2561 96.4239 10.5678L98.027 11.1072C99.9339 11.6788 101.672 12.7075 103.091 14.1037C104.147 15.3654 104.764 16.9357 104.851 18.5785C104.937 20.2212 104.488 21.8476 103.571 23.2132C102.73 24.3535 101.596 25.2441 100.289 25.7902C98.9785 26.3543 97.5663 26.6449 96.1392 26.6442C94.0143 26.6703 91.9399 25.9964 90.236 24.7264Z" fill="black"/>
<path d="M114.703 24.8464C112.697 23.7051 111.032 22.0502 109.878 20.0519C108.726 17.9915 108.121 15.6703 108.121 13.3097C108.121 10.9491 108.726 8.62781 109.878 6.56745C111.032 4.565 112.697 2.90518 114.703 1.75802C116.759 0.583342 119.092 -0.021787 121.46 0.00502288C123.255 -0.0395835 125.038 0.308757 126.684 1.02566C128.33 1.74257 129.799 2.81074 130.989 4.15526L127.618 7.43643C126.883 6.53392 125.955 5.80815 124.902 5.3128C123.849 4.81745 122.699 4.56524 121.535 4.57477C120.023 4.55613 118.532 4.92768 117.205 5.65353C115.875 6.36864 114.778 7.45017 114.044 8.76991C113.315 10.1911 112.935 11.7652 112.935 13.3621C112.935 14.9591 113.315 16.5331 114.044 17.9543C114.775 19.2196 115.844 20.2569 117.13 20.9509C118.457 21.6767 119.948 22.0483 121.46 22.0296C122.765 22.0408 124.054 21.744 125.223 21.1635C126.392 20.583 127.408 19.735 128.187 18.6885L131.603 21.9247C130.387 23.4043 128.85 24.5878 127.109 25.3857C125.316 26.1969 123.368 26.6061 121.4 26.5844C119.053 26.6116 116.741 26.0116 114.703 24.8464Z" fill="black"/>
<path d="M144.398 0.589355H160.49V5.08417H149.148V10.9874H159.351V15.4822H149.148V21.3854H160.49V25.8802H144.398V0.589355Z" fill="black"/>
<path d="M162.453 7.91583H167.682L170.813 19.6773H171.068L174.694 7.91583H179.458L183.084 19.6773H183.324L186.455 7.91583H191.609L185.811 26.0449H180.806L177.106 14.3135H176.851L173.195 26.0449H168.221L162.453 7.91583Z" fill="black"/>
<path d="M194.096 0.589355H198.756V7.0169L198.471 10.1783H198.756C199.319 9.30356 200.105 8.59497 201.033 8.12565C202.032 7.60486 203.143 7.33729 204.269 7.34652C205.205 7.28627 206.143 7.43065 207.018 7.7696C207.892 8.10856 208.683 8.63395 209.333 9.30925C210.589 10.8453 211.22 12.7977 211.101 14.778V26.045H206.442V15.3473C206.472 14.8553 206.404 14.3621 206.242 13.8965C206.08 13.4309 205.827 13.0022 205.498 12.6354C205.168 12.3145 204.775 12.064 204.345 11.8992C203.915 11.7343 203.456 11.6586 202.996 11.6765C202.413 11.6718 201.838 11.8051 201.317 12.0655C200.797 12.3259 200.345 12.7061 199.999 13.1748C199.187 14.2168 198.763 15.5097 198.801 16.8306V26.045H194.141L194.096 0.589355Z" fill="black"/>
<path d="M216.151 24.9213C215.539 24.3633 215.056 23.679 214.735 22.9158C214.414 22.1526 214.263 21.3287 214.293 20.5013C214.275 19.3571 214.615 18.236 215.267 17.2951C215.919 16.3492 216.829 15.6107 217.889 15.1675C219.056 14.6612 220.317 14.406 221.589 14.4184C223.225 14.3761 224.853 14.6509 226.384 15.2274V14.4484C226.397 13.9881 226.303 13.5311 226.111 13.1128C225.919 12.6944 225.633 12.326 225.275 12.0361C224.416 11.3849 223.355 11.0561 222.279 11.1072C221.42 11.108 220.574 11.3081 219.806 11.6916C219.047 12.0432 218.373 12.5542 217.829 13.1898L214.832 10.8375C215.71 9.70752 216.845 8.80346 218.143 8.20056C219.502 7.5814 220.98 7.26937 222.473 7.28663C224.75 7.12286 227.007 7.80582 228.811 9.20442C229.562 9.9251 230.146 10.8017 230.521 11.7725C230.896 12.7432 231.054 13.7845 230.984 14.8229V25.985H226.414V24.2021H226.129C225.555 24.9353 224.822 25.5294 223.987 25.9401C222.721 26.52 221.318 26.732 219.937 26.5519C218.557 26.3717 217.255 25.8066 216.181 24.9213H216.151ZM225.14 21.685C225.907 20.8764 226.331 19.8027 226.324 18.6884C225.135 18.1221 223.835 17.8302 222.518 17.8344C220.106 17.8344 218.892 18.7484 218.892 20.5463C218.883 20.8861 218.95 21.2237 219.087 21.5347C219.224 21.8457 219.429 22.1222 219.687 22.3442C220.321 22.8401 221.115 23.0854 221.919 23.0334C222.532 23.0651 223.144 22.9606 223.711 22.7275C224.278 22.4943 224.787 22.1383 225.2 21.685H225.14Z" fill="black"/>
<path d="M0.252808 43.5504H14.1493C16.4886 43.4943 18.8045 44.027 20.8843 45.0995C22.7653 46.0627 24.3254 47.5526 25.3742 49.3874C26.4613 51.2685 27.0125 53.4113 26.9682 55.5835C27.0146 57.9579 26.2194 60.2721 24.7232 62.1164C23.1923 64.0016 21.1733 65.4304 18.8862 66.2472V66.6064L29.1009 81.2662V81.6927H20.6822L10.8267 67.3697H7.45924V81.6927H0.275279L0.252808 43.5504ZM14.1044 60.747C14.8352 60.7746 15.5642 60.6579 16.2498 60.4036C16.9355 60.1494 17.5644 59.7626 18.1005 59.2653C18.6094 58.7763 19.0102 58.1859 19.277 57.5325C19.5438 56.879 19.6707 56.1768 19.6495 55.4713C19.6628 54.7595 19.5294 54.0525 19.2576 53.3945C18.9858 52.7365 18.5814 52.1415 18.0696 51.6466C17.5579 51.1516 16.9497 50.7674 16.2829 50.5178C15.6162 50.2681 14.9052 50.1584 14.1942 50.1955H7.45924V60.747H14.1044Z" fill="black"/>
<path d="M37.9686 80.6826C35.8326 79.466 34.0703 77.6882 32.8725 75.5416C31.6718 73.2971 31.0436 70.7909 31.0436 68.2454C31.0436 65.6999 31.6718 63.1937 32.8725 60.9492C34.0439 58.7659 35.7709 56.9306 37.8788 55.6286C40.0295 54.3237 42.5025 53.647 45.0179 53.6754C47.5528 53.6089 50.0584 54.2295 52.2692 55.4714C54.2545 56.6408 55.8542 58.3654 56.8714 60.4328C57.9411 62.6027 58.4797 64.9958 58.4429 67.4148C58.4443 68.1659 58.3917 68.9161 58.2858 69.6597H37.8788C38.0947 71.57 39.0153 73.3311 40.4606 74.5987C41.8532 75.7314 43.605 76.3286 45.3995 76.2824C46.8471 76.3158 48.2761 75.9508 49.5303 75.2273C50.6705 74.5542 51.6148 73.5945 52.2692 72.4435L57.9266 75.2049C56.72 77.4841 54.8924 79.3748 52.6555 80.6582C50.4186 81.9415 47.8639 82.5649 45.2873 82.4561C42.7339 82.5218 40.2087 81.9099 37.9686 80.6826ZM51.708 64.8106C51.6185 63.9012 51.302 63.0289 50.7875 62.2737C50.206 61.4175 49.4386 60.7038 48.5425 60.1859C47.4846 59.6296 46.3027 59.3515 45.1077 59.3777C43.5428 59.3338 42.0138 59.8514 40.7973 60.8369C39.5622 61.8765 38.6636 63.2595 38.2156 64.8106H51.708Z" fill="black"/>
<path d="M69.5108 80.7051C67.3662 79.4998 65.6011 77.7191 64.4147 75.5641C63.1743 73.2777 62.5405 70.7117 62.5738 68.1107C62.5352 65.5163 63.1695 62.9562 64.4147 60.6798C65.6011 58.5248 67.3662 56.7441 69.5108 55.5388C71.7455 54.2682 74.2818 53.6243 76.8519 53.6754C79.5754 53.6027 82.2677 54.27 84.642 55.6061C86.7736 56.8777 88.4236 58.8198 89.3341 61.1288L82.9358 63.8003C82.4207 62.6406 81.5596 61.6686 80.4704 61.0175C79.3812 60.3664 78.1173 60.0681 76.8519 60.1635C75.869 60.1331 74.8913 60.3183 73.9877 60.7061C73.084 61.094 72.2762 61.6751 71.6211 62.4085C70.2654 64.0254 69.5224 66.068 69.5224 68.1781C69.5224 70.2881 70.2654 72.3308 71.6211 73.9477C72.2762 74.6811 73.084 75.2621 73.9877 75.65C74.8913 76.0378 75.869 76.223 76.8519 76.1926C78.178 76.2546 79.4929 75.9232 80.6312 75.2402C81.7696 74.5572 82.6807 73.553 83.2501 72.3537L89.6034 75.1151C88.5017 77.4129 86.7542 79.3398 84.5747 80.6602C82.276 81.9424 79.692 82.6267 77.0599 82.6502C74.4279 82.6737 71.8321 82.0358 69.5108 80.7949V80.7051Z" fill="black"/>
<path d="M94.3403 54.5285H100.896V58.0531H101.322C102.049 56.7158 103.138 55.6107 104.465 54.8652C105.882 54.0152 107.505 53.5725 109.157 53.5856C110.318 53.5666 111.471 53.7803 112.547 54.2142V61.1512C111.763 60.841 110.961 60.5785 110.145 60.3655C109.453 60.2097 108.744 60.1344 108.035 60.141C107.097 60.1058 106.164 60.2905 105.31 60.6804C104.457 61.0702 103.706 61.6542 103.118 62.386C101.891 64.0197 101.257 66.0233 101.322 68.0658V81.5357H94.3403V54.5285Z" fill="black"/>
<path d="M119.462 79.5152C117.623 77.0826 116.716 74.0726 116.903 71.0291V54.5284H123.952V70.2434C123.851 71.8077 124.322 73.3555 125.276 74.5986C125.71 75.1061 126.252 75.5105 126.861 75.7824C127.471 76.0542 128.134 76.1867 128.801 76.1702C129.712 76.1966 130.616 76.0069 131.439 75.6167C132.263 75.2264 132.982 74.6468 133.538 73.9252C134.75 72.3458 135.369 70.3915 135.289 68.4025V54.5509H142.271V81.7153H135.626V78.258H135.177C134.347 79.5994 133.157 80.6807 131.742 81.3786C130.235 82.1487 128.563 82.5415 126.87 82.5234C125.488 82.6147 124.104 82.3915 122.821 81.8704C121.537 81.3493 120.389 80.5441 119.462 79.5152Z" fill="black"/>
<path d="M156.078 74.0149C156.511 74.4286 156.854 74.9273 157.086 75.4796C157.318 76.032 157.433 76.6263 157.425 77.2253C157.432 77.8175 157.316 78.4048 157.085 78.9498C156.853 79.4948 156.51 79.9855 156.078 80.3907C155.663 80.813 155.166 81.1463 154.618 81.3701C154.07 81.594 153.482 81.7038 152.89 81.6928C151.699 81.6928 150.557 81.2197 149.715 80.3777C148.873 79.5356 148.4 78.3936 148.4 77.2028C148.394 76.6081 148.505 76.0181 148.729 75.467C148.952 74.9159 149.283 74.4147 149.702 73.9925C150.112 73.5678 150.604 73.2313 151.148 73.0035C151.692 72.7757 152.277 72.6615 152.867 72.6679C153.465 72.6674 154.057 72.7863 154.608 73.0176C155.16 73.2489 155.659 73.5879 156.078 74.0149ZM156.414 69.7045H149.433V42.5402H156.414V69.7045Z" fill="#EA4335"/>
<path d="M171.546 81.9173C170.501 81.5655 169.549 80.9822 168.762 80.2111C167.894 79.2825 167.225 78.1859 166.796 76.9891C166.367 75.7922 166.188 74.5203 166.27 73.2516V60.4776H161.51V54.5284H166.27V46.8281H173.342V54.506H180.077V60.4552H173.342V72.0169C173.235 73.1194 173.556 74.2208 174.24 75.0925C174.577 75.4159 174.98 75.6618 175.422 75.813C175.865 75.9642 176.334 76.0172 176.799 75.9681C177.372 75.9867 177.944 75.8952 178.483 75.6986C179.078 75.438 179.656 75.138 180.211 74.8007V81.5356C178.664 82.1308 177.02 82.4352 175.362 82.4336C174.069 82.4986 172.775 82.3236 171.546 81.9173Z" fill="black"/>
<path d="M186.812 50.1956C186.382 49.7851 186.042 49.2896 185.814 48.7409C185.586 48.1921 185.475 47.6019 185.487 47.0077C185.475 46.417 185.587 45.8302 185.815 45.2851C186.043 44.74 186.382 44.2487 186.812 43.8423C187.231 43.4262 187.729 43.097 188.276 42.8735C188.823 42.6501 189.409 42.5368 189.999 42.5402C190.592 42.5265 191.181 42.635 191.729 42.8591C192.278 43.0831 192.774 43.4179 193.187 43.8423C194.022 44.6842 194.49 45.822 194.489 47.0077C194.493 47.5986 194.38 48.1844 194.156 48.7315C193.933 49.2785 193.603 49.7761 193.187 50.1956C192.78 50.6304 192.285 50.9749 191.736 51.2069C191.187 51.4389 190.595 51.5533 189.999 51.5426C189.404 51.5479 188.814 51.4311 188.266 51.1994C187.718 50.9677 187.223 50.6261 186.812 50.1956ZM186.497 54.5284H193.479V81.6928H186.497V54.5284Z" fill="black"/>
<path d="M200.685 54.5284H207.241V57.9184H207.667C208.509 56.5837 209.706 55.5106 211.125 54.8203C212.625 54.0528 214.289 53.66 215.974 53.6753C217.36 53.5826 218.75 53.8028 220.04 54.3196C221.331 54.8364 222.488 55.6367 223.427 56.6612C225.246 58.9743 226.157 61.8728 225.986 64.8105V81.6928H219.005V65.6636C219.095 64.1901 218.621 62.7374 217.68 61.6001C217.195 61.1121 216.612 60.7319 215.97 60.4843C215.328 60.2367 214.641 60.1274 213.953 60.1634C213.081 60.1563 212.219 60.356 211.439 60.7462C210.658 61.1364 209.981 61.7061 209.463 62.4084C208.263 63.9752 207.651 65.914 207.735 67.8861V81.7377H200.753L200.685 54.5284Z" fill="black"/>
<path d="M236.201 91.728C234.145 90.4028 232.571 88.4505 231.711 86.1604L238.267 83.5113C238.765 84.5794 239.51 85.5137 240.44 86.237C241.371 86.9603 242.46 87.4518 243.618 87.6711C244.776 87.8904 245.97 87.8312 247.1 87.4983C248.231 87.1653 249.266 86.5682 250.12 85.7563C250.807 84.9737 251.334 84.0633 251.669 83.0772C252.004 82.091 252.141 81.0485 252.073 80.0091V77.8764H251.647C250.796 79.086 249.632 80.0408 248.279 80.6377C246.791 81.3061 245.173 81.6358 243.542 81.6031C241.336 81.6098 239.17 81.012 237.279 79.8744C235.32 78.6813 233.709 76.9934 232.609 74.9804C231.458 72.6885 230.859 70.1591 230.859 67.5944C230.859 65.0296 231.458 62.5003 232.609 60.2083C233.703 58.1909 235.315 56.5015 237.279 55.3143C239.165 54.167 241.334 53.5684 243.542 53.5856C245.171 53.5568 246.786 53.8783 248.279 54.5285C249.629 55.1412 250.791 56.102 251.647 57.3123H252.073V54.4388H258.808V79.8296C258.868 82.4532 258.282 85.0513 257.102 87.3952C256.007 89.4773 254.32 91.1883 252.253 92.3117C249.745 93.5753 246.958 94.1844 244.152 94.0823C241.346 93.9803 238.611 93.1704 236.201 91.728ZM249.896 73.2966C251.219 71.7259 251.945 69.7381 251.945 67.6842C251.945 65.6303 251.219 63.6424 249.896 62.0717C248.536 60.78 246.731 60.0597 244.856 60.0597C242.98 60.0597 241.176 60.78 239.816 62.0717C238.488 63.6405 237.759 65.6291 237.759 67.6842C237.759 69.7393 238.488 71.7279 239.816 73.2966C241.158 74.6129 242.964 75.3502 244.844 75.3502C246.725 75.3502 248.53 74.6129 249.873 73.2966H249.896Z" fill="black"/>
<path d="M156.078 74.0149C155.661 73.5975 155.166 73.2663 154.62 73.0403C154.075 72.8144 153.491 72.6981 152.901 72.6981C152.311 72.6981 151.727 72.8144 151.182 73.0403C150.637 73.2663 150.141 73.5975 149.724 74.0149C149.302 74.4299 148.969 74.9266 148.745 75.4748C148.521 76.0229 148.411 76.6109 148.422 77.2028C148.412 77.7914 148.522 78.3759 148.746 78.9203C148.97 79.4648 149.303 79.9575 149.724 80.3683C150.35 81.0079 151.152 81.4461 152.028 81.6268C152.904 81.8074 153.814 81.7222 154.642 81.3821C155.469 81.042 156.176 80.4624 156.672 79.7178C157.168 78.9731 157.43 78.0974 157.425 77.2028C157.433 76.6072 157.317 76.0165 157.085 75.4678C156.853 74.9191 156.51 74.4244 156.078 74.0149Z" fill="#EA4335"/>
<path d="M156.414 64.788V69.6597H149.432V58.8837C149.835 60.4733 150.724 61.8972 151.976 62.956C153.228 64.0148 154.78 64.6554 156.414 64.788Z" fill="#4285F4"/>
<path d="M156.414 42.5402V49.0731C154.778 49.2104 153.226 49.8554 151.974 50.918C150.722 51.9806 149.834 53.4077 149.432 54.9999V42.5402H156.414Z" fill="#FBBC04"/>
<path d="M156.414 49.0731V64.788C154.78 64.6554 153.228 64.0148 151.976 62.956C150.724 61.8972 149.835 60.4733 149.432 58.8837V54.955C149.842 53.3711 150.734 51.954 151.985 50.9C153.236 49.846 154.784 49.2075 156.414 49.0731Z" fill="#0F9D58"/>
</svg>
